<?xml version="1.0" encoding="utf-8"?>
<!-- Generator: Adobe Illustrator 19.0.0, SVG Export Plug-In . SVG Version: 6.00 Build 0)  -->
<svg version="1.1" id="Layer_1" xmlns="http://www.w3.org/2000/svg" xmlns:xlink="http://www.w3.org/1999/xlink" x="0px" y="0px"
	 viewBox="-305 336 109 50" style="enable-background:new -305 336 109 50;" xml:space="preserve">
<style type="text/css">
	.st0{fill:#FFFFFF;}
</style>
<g>
	<path class="st0" d="M-279.8,370.6h-3.4c-0.4,0-0.7-0.1-0.9-0.3c-0.2-0.2-0.4-0.4-0.5-0.7l-1.8-4.9h-9.9l-1.8,4.9
		c-0.1,0.3-0.3,0.5-0.5,0.7c-0.3,0.2-0.6,0.3-0.9,0.3h-3.5l9.4-23.9h4.5L-279.8,370.6z M-287.6,361.6l-2.9-7.9
		c-0.1-0.4-0.3-0.8-0.4-1.3c-0.2-0.5-0.3-1-0.5-1.6c-0.1,0.6-0.3,1.1-0.4,1.6c-0.2,0.5-0.3,0.9-0.4,1.3l-2.9,7.9H-287.6z"/>
	<path class="st0" d="M-273.9,346.1v24.5h-4.1v-24.5H-273.9z"/>
	<path class="st0" d="M-254.9,354.3v1.5c0,0.5-0.3,0.8-0.9,0.9l-1.5,0.3c0.2,0.6,0.3,1.2,0.3,1.9c0,0.8-0.2,1.6-0.5,2.3
		c-0.3,0.7-0.8,1.3-1.4,1.7c-0.6,0.5-1.3,0.8-2.1,1.1c-0.8,0.3-1.7,0.4-2.6,0.4c-0.3,0-0.6,0-1,0c-0.3,0-0.6-0.1-0.9-0.1
		c-0.5,0.3-0.8,0.7-0.8,1.1c0,0.3,0.2,0.6,0.5,0.8c0.3,0.2,0.7,0.3,1.2,0.3c0.5,0.1,1.1,0.1,1.8,0.1c0.7,0,1.3,0.1,2,0.1
		c0.7,0.1,1.4,0.2,2,0.3c0.7,0.1,1.2,0.4,1.8,0.7c0.5,0.3,0.9,0.7,1.2,1.2s0.5,1.2,0.5,2c0,0.7-0.2,1.5-0.6,2.2
		c-0.4,0.7-0.9,1.3-1.6,1.9c-0.7,0.5-1.6,1-2.6,1.3s-2.2,0.5-3.5,0.5c-1.3,0-2.4-0.1-3.3-0.4c-0.9-0.2-1.7-0.6-2.4-1
		c-0.6-0.4-1.1-0.9-1.4-1.4s-0.5-1.1-0.5-1.7c0-0.8,0.2-1.5,0.7-2c0.5-0.5,1.1-1,2-1.3c-0.5-0.2-0.8-0.5-1.1-0.9
		c-0.3-0.4-0.4-0.9-0.4-1.5c0-0.3,0-0.5,0.1-0.8c0.1-0.3,0.2-0.5,0.4-0.8c0.2-0.3,0.4-0.5,0.7-0.8c0.3-0.2,0.6-0.4,1-0.6
		c-0.9-0.5-1.5-1.1-2-1.8c-0.5-0.8-0.7-1.7-0.7-2.7c0-0.8,0.2-1.6,0.5-2.3c0.3-0.7,0.8-1.3,1.4-1.7s1.3-0.8,2.1-1.1
		c0.8-0.3,1.7-0.4,2.7-0.4c0.7,0,1.4,0.1,2,0.2c0.6,0.1,1.2,0.4,1.7,0.7H-254.9z M-259,371.4c0-0.3-0.1-0.6-0.3-0.8
		s-0.5-0.4-0.8-0.5c-0.3-0.1-0.7-0.2-1.2-0.3c-0.5-0.1-0.9-0.1-1.5-0.1c-0.5,0-1-0.1-1.6-0.1c-0.5,0-1.1-0.1-1.6-0.1
		c-0.5,0.3-0.8,0.5-1.1,0.9c-0.3,0.3-0.4,0.7-0.4,1.2c0,0.3,0.1,0.6,0.2,0.8c0.1,0.3,0.4,0.5,0.7,0.7c0.3,0.2,0.7,0.3,1.3,0.4
		c0.5,0.1,1.1,0.2,1.9,0.2c0.8,0,1.4-0.1,2-0.2s1-0.3,1.4-0.5s0.6-0.4,0.8-0.7C-259.1,372-259,371.7-259,371.4z M-263.6,361.8
		c0.5,0,0.9-0.1,1.3-0.2c0.4-0.1,0.7-0.3,0.9-0.6c0.2-0.2,0.4-0.5,0.6-0.9c0.1-0.3,0.2-0.7,0.2-1.1c0-0.8-0.3-1.5-0.8-2
		c-0.5-0.5-1.3-0.7-2.3-0.7s-1.8,0.2-2.3,0.7c-0.5,0.5-0.8,1.2-0.8,2c0,0.4,0.1,0.8,0.2,1.1c0.1,0.3,0.3,0.6,0.6,0.9
		c0.2,0.2,0.6,0.4,0.9,0.6C-264.5,361.7-264.1,361.8-263.6,361.8z"/>
	<path class="st0" d="M-245.2,353.4c1.3,0,2.4,0.2,3.4,0.6c1,0.4,1.9,1,2.6,1.7s1.3,1.7,1.7,2.7c0.4,1.1,0.6,2.3,0.6,3.6
		c0,1.3-0.2,2.6-0.6,3.6c-0.4,1.1-1,2-1.7,2.8s-1.6,1.3-2.6,1.7s-2.2,0.6-3.4,0.6c-1.3,0-2.4-0.2-3.4-0.6c-1-0.4-1.9-1-2.6-1.7
		s-1.3-1.7-1.7-2.8c-0.4-1.1-0.6-2.3-0.6-3.6c0-1.3,0.2-2.5,0.6-3.6c0.4-1.1,1-2,1.7-2.7s1.6-1.3,2.6-1.7
		C-247.6,353.6-246.4,353.4-245.2,353.4z M-245.2,367.8c1.4,0,2.5-0.5,3.1-1.4s1-2.3,1-4.2c0-1.8-0.3-3.2-1-4.2s-1.7-1.4-3.1-1.4
		c-1.4,0-2.5,0.5-3.2,1.4c-0.7,1-1,2.4-1,4.2c0,1.8,0.3,3.2,1,4.1C-247.6,367.3-246.6,367.8-245.2,367.8z"/>
	<path class="st0" d="M-218.1,361.1h-6.4v6.8h-3.3v-6.8h-6.4v-3h6.4v-6.8h3.3v6.8h6.4V361.1z"/>
	<path class="st0" d="M-198.9,361.1h-6.4v6.8h-3.3v-6.8h-6.4v-3h6.4v-6.8h3.3v6.8h6.4V361.1z"/>
</g>
</svg>
